<?xml version="1.0" encoding="iso-8859-1"?>
<!-- Generator: Adobe Illustrator 16.0.0, SVG Export Plug-In . SVG Version: 6.00 Build 0)  -->
<!DOCTYPE svg PUBLIC "-//W3C//DTD SVG 1.1//EN" "http://www.w3.org/Graphics/SVG/1.1/DTD/svg11.dtd">
<svg version="1.1" id="Capa_1" xmlns="http://www.w3.org/2000/svg" xmlns:xlink="http://www.w3.org/1999/xlink" x="0px" y="0px"
	 width="68.416px" height="68.416px" viewBox="0 0 68.416 68.416" style="enable-background:new 0 0 68.416 68.416;"
	 xml:space="preserve">
<g>
	<g>
		<g>
			<path d="M21.245,20.503v8.933c0,1.792,5.804,4.536,12.963,4.536s12.964-2.747,12.964-4.536v-8.933l-12.964,4.628L21.245,20.503z"
				/>
			<path d="M20.213,32.093v-13.83h-1.509v13.83c-0.446,0.262-0.754,0.73-0.754,1.283c0,0.832,0.673,1.509,1.509,1.509
				c0.836,0,1.514-0.675,1.514-1.509C20.973,32.818,20.661,32.355,20.213,32.093z"/>
			<path d="M32.737,15.456c0.214-0.615,0.785-1.058,1.469-1.058c0.872,0,1.576,0.708,1.576,1.578c0,0.867-0.705,1.575-1.576,1.575
				c-0.5,0-0.92-0.243-1.212-0.608l-12.038,1.853l13.253,4.735l21.155-7.555L34.208,8.416l-21.156,7.554l4.912,1.756L32.737,15.456z
				"/>
		</g>
		<polygon points="34.208,60 0,34.963 14.655,34.963 34.208,49.621 53.76,34.963 68.416,34.963 		"/>
	</g>
</g>
<g>
</g>
<g>
</g>
<g>
</g>
<g>
</g>
<g>
</g>
<g>
</g>
<g>
</g>
<g>
</g>
<g>
</g>
<g>
</g>
<g>
</g>
<g>
</g>
<g>
</g>
<g>
</g>
<g>
</g>
</svg>
